<?xml version="1.0" encoding="UTF-8"?>
<svg version="1.1" xmlns="http://www.w3.org/2000/svg" width="469" height="469">
<path d="M0 0 C17.72611335 -0.04700969 35.45220687 -0.08212922 53.17836857 -0.10362434 C61.4114956 -0.11387633 69.6445836 -0.12781822 77.87768555 -0.15087891 C85.06525195 -0.17100124 92.25279005 -0.1837604 99.44038385 -0.18817699 C103.23561677 -0.19075298 107.0307688 -0.19667562 110.82597542 -0.21146011 C152.05968843 -0.36554466 191.42717884 1.15000318 222.625 31.55859375 C240.91863571 50.77248857 247.97455764 74.53439806 248.00390625 100.44921875 C247.23336273 120.55339958 239.51914105 143.48085895 225 158 C225.59723877 158.10957031 226.19447754 158.21914062 226.80981445 158.33203125 C255.89128148 163.80409618 281.67272446 174.82254545 299.09765625 200.03515625 C313.1252082 222.03350408 318.57333775 248.32097654 313 274 C306.63344688 298.8826556 292.18683216 319.69678347 270 333 C255.44870767 341.04919985 239.69729676 346.18548811 223.99162292 351.45500183 C220.59330411 352.59822395 217.199619 353.75503286 213.80566406 354.91113281 C209.70277106 356.30805101 205.59966086 357.70429049 201.49468994 359.09509277 C191.07265876 362.62652434 180.67352256 366.22049974 170.28881836 369.86022949 C166.05298069 371.34474823 161.81542488 372.82434876 157.578125 374.3046875 C156.73733398 374.59855347 155.89654297 374.89241943 155.03027344 375.19519043 C96.08580631 395.79409322 96.08580631 395.79409322 71 404 C64.00554076 392.87837538 57.43186694 381.51462529 50.83349609 370.15527344 C47.95672951 365.20463012 45.07248121 360.25835947 42.1875 355.3125 C41.61821777 354.33627686 41.04893555 353.36005371 40.46240234 352.35424805 C35.81960229 344.39617246 31.1613328 336.44722682 26.5 328.5 C21.05333873 319.21366429 15.6131474 309.92363613 10.1875 300.625 C9.33478516 299.16416992 9.33478516 299.16416992 8.46484375 297.67382812 C7.93375 296.76310547 7.40265625 295.85238281 6.85546875 294.9140625 C6.39809326 294.1298291 5.94071777 293.3455957 5.46948242 292.53759766 C4.74208862 291.28148682 4.74208862 291.28148682 4 290 C3.31961292 289.03161414 2.63922585 288.06322828 1.93822098 287.0654974 C-0.88812755 282.07046595 -0.54145917 277.02079409 -0.48101807 271.41444397 C-0.48443577 270.25281768 -0.48785347 269.09119139 -0.49137473 267.8943643 C-0.49681087 264.68329179 -0.48436182 261.47287017 -0.46426249 258.26187456 C-0.4469494 254.79434488 -0.4528369 251.3268442 -0.45587158 247.85928345 C-0.45796652 241.85593076 -0.44544248 235.8527523 -0.42292023 229.84944344 C-0.39037839 221.1697531 -0.37999099 212.49014681 -0.37496826 203.81040209 C-0.36621903 189.72731343 -0.33961355 175.64431758 -0.30175781 161.5612793 C-0.26502809 147.8828986 -0.23672104 134.20454312 -0.21972656 120.52612305 C-0.21867567 119.68264236 -0.21762477 118.83916168 -0.21654204 117.97012097 C-0.21132179 113.73852341 -0.20626698 109.50692566 -0.20129442 105.2753278 C-0.15984396 70.18348572 -0.08940567 35.09175143 0 0 Z M14 15 C14 98.49 14 181.98 14 268 C21.7297419 263.78377714 29.44078622 259.54696589 37.125 255.25 C38.1253125 254.693125 39.125625 254.13625 40.15625 253.5625 C42.20657019 252.41597334 44.24545847 251.24873336 46.27165222 250.06008911 C48.89396681 248.55734999 51.54740418 247.29949011 54.31880188 246.09591675 C62.37885213 242.53584987 62.37885213 242.53584987 67.94811249 236.06976318 C69.38416929 230.55603186 68.95347948 224.94045071 68.66015625 219.3046875 C68.62839943 217.5030559 68.60422388 215.70127623 68.58726501 213.89944458 C68.52271318 209.18369462 68.35614526 204.47702181 68.16729736 199.76483154 C67.99254761 194.94603336 67.91557729 190.12574887 67.83007812 185.3046875 C67.64841011 175.86582823 67.35879138 166.43367197 67 157 C67.70476251 157.00553076 68.40952501 157.01106152 69.13564396 157.01675987 C86.29574358 157.14935101 103.45571285 157.24859532 120.61621189 157.31087303 C128.91498287 157.34179182 137.2134116 157.38393399 145.51196289 157.45263672 C152.74625519 157.51249995 159.98029961 157.55116354 167.21483272 157.56453097 C171.04448479 157.57234325 174.87342779 157.59066086 178.70285225 157.63438034 C182.31044682 157.67523196 185.91704312 157.68764449 189.52484703 157.67864609 C191.47382748 157.68107323 193.42270018 157.71329661 195.37139893 157.746521 C202.87162871 157.72736683 202.87162871 157.72736683 209.20249939 154.10879517 C210.1686262 153.10380716 211.10583954 152.06952277 212 151 C212.73347656 150.20078125 213.46695313 149.4015625 214.22265625 148.578125 C229.35895266 129.42476479 235.31657812 108.25884345 232.78173828 83.90283203 C230.1999198 66.2566245 221.33552233 51.55117832 209 39 C208.38640625 38.37351562 207.7728125 37.74703125 207.140625 37.1015625 C198.93546016 29.35224015 188.82675468 24.32957239 178.25 20.6875 C177.59725098 20.45732178 176.94450195 20.22714355 176.27197266 19.98999023 C158.38641669 14.23427733 139.97859006 14.58645253 121.41572571 14.69615936 C117.99955479 14.71349607 114.58345182 14.71406216 111.16723633 14.71618652 C101.23645127 14.73180583 91.3057215 14.77368934 81.375 14.8125 C59.14125 14.874375 36.9075 14.93625 14 15 Z M81 171 C81 190.14 81 209.28 81 229 C89.63545691 224.68227155 97.98865743 220.41185855 106.25 215.5 C108.34078023 214.26891013 110.43193942 213.03846367 112.5234375 211.80859375 C113.58916992 211.18065918 114.65490234 210.55272461 115.75292969 209.90576172 C121.1098559 206.76168908 126.49225134 203.66208912 131.875 200.5625 C132.94266602 199.94705322 134.01033203 199.33160645 135.11035156 198.69750977 C139.57834346 196.12221819 144.04719171 193.54841572 148.51660156 190.97558594 C150.87346291 189.61884742 153.23006924 188.26166779 155.58642578 186.90405273 C157.79006869 185.63453881 159.99413955 184.36576732 162.19873047 183.09790039 C167.06152044 180.29609606 171.9164981 177.48097786 176.75 174.62890625 C177.56984375 174.14623291 178.3896875 173.66355957 179.234375 173.16625977 C179.81703125 172.78139404 180.3996875 172.39652832 181 172 C181 171.67 181 171.34 181 171 C148 171 115 171 81 171 Z M195.37988281 179.47216797 C190.59503536 182.54393401 185.62373362 185.30580464 180.6875 188.125 C178.42022766 189.42908743 176.1533055 190.73378384 173.88671875 192.0390625 C172.74509277 192.69551758 171.6034668 193.35197266 170.42724609 194.02832031 C164.94844203 197.18025232 159.47438887 200.34040797 154 203.5 C151.83335774 204.7500423 149.66669103 206.00004224 147.5 207.25 C146.4275 207.86875 145.355 208.4875 144.25 209.125 C134.5 214.75 134.5 214.75 131.24560547 216.62744141 C129.0934787 217.86911527 126.94145927 219.11097522 124.78955078 220.35302734 C119.74969023 223.26166823 114.70882508 226.16851898 109.66400146 229.06854248 C107.88250422 230.09275665 106.10135678 231.11757651 104.3203125 232.14257812 C102.08923375 233.42633375 99.85750427 234.70895939 97.625 235.99023438 C96.61179687 236.57353516 95.59859375 237.15683594 94.5546875 237.7578125 C93.67280762 238.2645752 92.79092773 238.77133789 91.88232422 239.29345703 C90.45557373 240.1381958 90.45557373 240.1381958 89 241 C88.34014917 241.26131494 87.68029835 241.52262987 87.00045204 241.79186344 C84.50998819 242.94318696 82.8772395 243.98368523 81 246 C79.79872753 250.42241434 79.98954313 254.77049526 80.09179688 259.32739258 C80.09405467 260.69756945 80.09278444 262.067756 80.08825684 263.43792725 C80.08596354 267.15117374 80.1329548 270.86234825 80.1888485 274.57511353 C80.23889839 278.45741373 80.24356129 282.33976278 80.25305176 286.22233582 C80.27790582 293.57144017 80.34353834 300.91959118 80.42384768 308.26827592 C80.51330281 316.63569141 80.55726155 325.00315273 80.59741116 333.37092745 C80.68100673 350.58116954 80.82169703 367.79048393 81 385 C82.72827817 384.53633762 84.45599124 384.07056858 86.18347168 383.60394287 C87.14565361 383.34479977 88.10783554 383.08565666 89.0991745 382.81866074 C93.55619868 381.5608151 97.9134477 380.05064531 102.28125 378.515625 C103.71295532 378.01751312 103.71295532 378.01751312 105.17358398 377.50933838 C108.28361434 376.42637019 111.39180178 375.33821412 114.5 374.25 C116.69845077 373.48338852 118.89702035 372.7171177 121.09570312 371.95117188 C126.67755614 370.00573103 132.25794729 368.05613507 137.83789062 366.10522461 C143.45805134 364.14085868 149.07971608 362.18080651 154.70126343 360.22041321 C159.03515585 358.70895174 163.36875508 357.19666285 167.70166016 355.68237305 C177.40670076 352.29173571 187.1179686 348.91982036 196.8359375 345.56640625 C199.02931642 344.80865032 201.22267586 344.050838 203.41601562 343.29296875 C206.58908534 342.19657998 209.76247298 341.10118425 212.93725586 340.00976562 C223.52767486 336.36895693 234.08208264 332.65633291 244.5546875 328.6875 C245.41488495 328.36270157 246.2750824 328.03790314 247.16134644 327.70326233 C268.62103973 319.48218844 285.05548652 304.82268103 294.64135742 283.79467773 C302.7269862 265.05718285 302.64599802 242.08164742 295.25244141 223.07861328 C291.76019633 214.79283844 287.04208087 207.6440998 281 201 C280.2265625 200.14535156 279.453125 199.29070312 278.65625 198.41015625 C263.51576141 182.47910418 242.51675465 174.61965216 221 172 C220.01 171.86335937 219.02 171.72671875 218 171.5859375 C208.50730574 170.91848244 202.9318086 174.45545728 195.37988281 179.47216797 Z M59.34765625 258.11328125 C58.77967819 258.43906662 58.21170013 258.76485199 57.62651062 259.10050964 C55.76944774 260.16707338 53.9159704 261.23970748 52.0625 262.3125 C50.7928488 263.043326 49.52299118 263.77379351 48.25292969 264.50390625 C45.08908746 266.32416379 41.92821789 268.14950596 38.76861572 269.97711182 C36.1525784 271.49011073 33.53512285 273.00065267 30.91796875 274.51171875 C26.60863893 277.00208631 22.30301573 279.49873962 18 282 C18.58216633 285.83291486 19.68920107 288.57153606 21.66796875 291.89453125 C22.50231445 293.30895508 22.50231445 293.30895508 23.35351562 294.75195312 C24.26133789 296.26692383 24.26133789 296.26692383 25.1875 297.8125 C26.47284507 299.98556541 27.757996 302.15874566 29.04296875 304.33203125 C29.70216309 305.44143066 30.36135742 306.55083008 31.04052734 307.69384766 C34.05480693 312.77974027 37.02644433 317.89023045 40 323 C41.15475604 324.97927862 42.30970509 326.95844465 43.46484375 328.9375 C45.91877901 333.14385392 48.36867778 337.35253143 50.81640625 341.5625 C51.44353516 342.64015625 52.07066406 343.7178125 52.71679688 344.828125 C53.91054516 346.87960354 55.10331984 348.93164906 56.29492188 350.984375 C59.4380404 356.38323102 62.58705586 361.76640754 66 367 C66.33 367 66.66 367 67 367 C67 330.04 67 293.08 67 255 C63.93336725 255 61.98949746 256.59078463 59.34765625 258.11328125 Z " fill="#EDF2F7" transform="translate(99,40)"/>
</svg>
