<svg width="79" height="101" viewBox="0 0 79 101" fill="none" xmlns="http://www.w3.org/2000/svg">
<path d="M0.131677 0.055055C4.56768 0.043309 9.00368 0.0345339 13.4397 0.029163C15.5001 0.0266014 17.5604 0.0231179 19.6208 0.0173558C21.4195 0.012328 23.2182 0.00913995 25.0169 0.0080364C25.9666 0.00739276 26.9164 0.0059129 27.8662 0.0022188C38.185 -0.0362813 48.0368 0.342399 55.8441 7.9404C60.4222 12.7413 62.1879 18.6785 62.1953 25.1537C62.0024 30.177 60.0719 35.9057 56.4385 39.5335C56.5879 39.5609 56.7374 39.5883 56.8914 39.6165C64.1691 40.9838 70.621 43.7369 74.9816 50.0366C78.492 55.5332 79.8554 62.1015 78.4607 68.5177C76.8675 74.735 73.2522 79.9357 67.6999 83.2597C64.0584 85.2709 60.1165 86.5543 56.1861 87.8709C55.3357 88.1566 54.4864 88.4456 53.6371 88.7345C52.6103 89.0835 51.5835 89.4324 50.5562 89.7799C47.9481 90.6623 45.3457 91.5603 42.7469 92.4697C41.6868 92.8406 40.6264 93.2103 39.566 93.5802C39.3556 93.6536 39.1452 93.7271 38.9284 93.8027C24.1774 98.9496 24.1774 98.9496 17.8996 101C16.1492 98.2211 14.5041 95.3817 12.8529 92.5434C12.133 91.3064 11.4112 90.0706 10.6892 88.8348C10.5467 88.5908 10.4043 88.3469 10.2575 88.0956C9.09562 86.1072 7.92988 84.121 6.76337 82.1353C5.40033 79.815 4.03891 77.4937 2.68112 75.1703C2.46773 74.8053 2.46773 74.8053 2.25003 74.4329C2.11712 74.2054 1.98421 73.9778 1.84728 73.7434C1.73282 73.5474 1.61836 73.3515 1.50043 73.1496C1.3184 72.8357 1.3184 72.8357 1.13269 72.5155C0.962419 72.2736 0.79215 72.0316 0.616722 71.7823C-0.0905788 70.5342 -0.00382416 69.2725 0.0113014 67.8717C0.0104461 67.5814 0.0095908 67.2912 0.00870959 66.9921C0.00734918 66.1898 0.0104646 65.3876 0.0154945 64.5853C0.0198271 63.7189 0.0183538 62.8525 0.0175943 61.9861C0.0170701 60.4861 0.0202043 58.9861 0.0258405 57.4861C0.0339842 55.3174 0.0365836 53.1486 0.0378406 50.9799C0.0400301 47.461 0.0466882 43.9422 0.0561617 40.4234C0.0653534 37.0056 0.0724373 33.5879 0.0766902 30.1702C0.0769532 29.9594 0.0772162 29.7487 0.0774872 29.5315C0.0787935 28.4742 0.0800585 27.4169 0.0813029 26.3595C0.091676 17.5914 0.109303 8.82321 0.131677 0.055055ZM3.63521 3.80301C3.63521 24.6641 3.63521 45.5253 3.63521 67.0185C5.5696 65.9651 7.49931 64.9064 9.4223 63.8328C9.67263 63.6936 9.92296 63.5545 10.1809 63.4111C10.694 63.1246 11.2042 62.833 11.7113 62.536C12.3675 62.1605 13.0315 61.8462 13.7251 61.5455C15.7421 60.656 15.7421 60.656 17.1359 59.0403C17.4952 57.6626 17.3875 56.2595 17.3141 54.8513C17.3061 54.4012 17.3001 53.951 17.2958 53.5008C17.2797 52.3225 17.238 51.1464 17.1907 49.969C17.147 48.765 17.1277 47.5606 17.1063 46.356C17.0609 43.9975 16.9884 41.6408 16.8986 39.2837C17.075 39.285 17.2513 39.2864 17.433 39.2878C21.7274 39.321 26.0217 39.3458 30.3162 39.3613C32.393 39.3691 34.4697 39.3796 36.5464 39.3968C38.3568 39.4117 40.1671 39.4214 41.9776 39.4247C42.936 39.4267 43.8942 39.4312 44.8525 39.4422C45.7553 39.4524 46.6579 39.4555 47.5607 39.4532C48.0485 39.4538 48.5362 39.4619 49.0239 39.4702C50.9008 39.4654 50.9008 39.4654 52.4851 38.5613C52.7269 38.3101 52.9614 38.0517 53.1852 37.7845C53.3688 37.5848 53.5523 37.3851 53.7414 37.1793C57.5293 32.3936 59.0202 27.105 58.3859 21.0193C57.7398 16.6102 55.5214 12.9358 52.4344 9.79974C52.2809 9.64321 52.1273 9.48667 51.9691 9.32539C49.9158 7.38912 47.386 6.13413 44.7392 5.22411C44.5758 5.1666 44.4125 5.10908 44.2442 5.04983C39.7683 3.61168 35.1617 3.69968 30.5163 3.72709C29.6614 3.73142 28.8065 3.73157 27.9516 3.7321C25.4664 3.736 22.9812 3.74646 20.496 3.75616C14.9319 3.77162 9.36787 3.78708 3.63521 3.80301ZM20.4021 42.7818C20.4021 47.5641 20.4021 52.3465 20.4021 57.2738C22.5632 56.195 24.6536 55.128 26.721 53.9007C27.2442 53.5931 27.7675 53.2856 28.2909 52.9783C28.5576 52.8214 28.8244 52.6645 29.0991 52.5029C30.4397 51.7173 31.7867 50.9428 33.1337 50.1684C33.4009 50.0146 33.6681 49.8608 33.9434 49.7024C35.0615 49.0589 36.1798 48.4158 37.2983 47.7729C37.8881 47.4339 38.4779 47.0948 39.0676 46.7556C39.619 46.4384 40.1706 46.1214 40.7223 45.8046C41.9392 45.1045 43.1542 44.4011 44.3638 43.6885C44.569 43.5679 44.7741 43.4473 44.9855 43.323C45.1313 43.2269 45.2771 43.1307 45.4274 43.0316C45.4274 42.9492 45.4274 42.8667 45.4274 42.7818C37.169 42.7818 28.9107 42.7818 20.4021 42.7818ZM49.026 44.8986C47.8286 45.6662 46.5845 46.3563 45.3492 47.0607C44.7818 47.3865 44.2145 47.7125 43.6473 48.0387C43.3616 48.2027 43.0759 48.3667 42.7815 48.5357C41.4104 49.3232 40.0405 50.1129 38.6706 50.9023C38.1284 51.2147 37.5861 51.527 37.0439 51.8393C36.7755 51.9939 36.5071 52.1485 36.2306 52.3078C33.7906 53.7133 33.7906 53.7133 32.9762 54.1824C32.4376 54.4926 31.8991 54.8029 31.3606 55.1133C30.0993 55.84 28.8378 56.5664 27.5754 57.291C27.1295 57.5469 26.6838 57.803 26.2381 58.0591C25.6798 58.3798 25.1213 58.7003 24.5626 59.0205C24.309 59.1662 24.0555 59.3119 23.7942 59.4621C23.5735 59.5887 23.3528 59.7154 23.1255 59.8458C22.7684 60.0569 22.7684 60.0569 22.4041 60.2722C22.239 60.3375 22.0739 60.4028 21.9038 60.4701C21.2805 60.7577 20.8719 61.0177 20.4021 61.5215C20.1015 62.6265 20.1493 63.713 20.1748 64.8516C20.1754 65.1939 20.1751 65.5363 20.174 65.8786C20.1734 66.8064 20.1851 67.7337 20.1991 68.6614C20.2117 69.6315 20.2128 70.6015 20.2152 71.5716C20.2214 73.4079 20.2378 75.2439 20.2579 77.0801C20.2803 79.1708 20.2913 81.2616 20.3014 83.3524C20.3223 87.6526 20.3575 91.9526 20.4021 96.2526C20.8346 96.1367 21.267 96.0204 21.6993 95.9038C21.9401 95.839 22.1809 95.7743 22.429 95.7076C23.5443 95.3933 24.6348 95.0159 25.7278 94.6324C26.0861 94.5079 26.0861 94.5079 26.4516 94.3809C27.2299 94.1103 28.0078 93.8385 28.7856 93.5666C29.3358 93.375 29.886 93.1835 30.4362 92.9922C31.8331 92.5061 33.2296 92.0189 34.626 91.5315C36.0324 91.0406 37.4392 90.5509 38.8461 90.0611C39.9306 89.6834 41.0151 89.3055 42.0994 88.9272C44.5281 88.08 46.9584 87.2375 49.3904 86.3996C49.9393 86.2102 50.4882 86.0209 51.037 85.8315C51.8311 85.5576 52.6253 85.2839 53.4198 85.0112C56.07 84.1015 58.7113 83.1738 61.3321 82.1821C61.5474 82.101 61.7626 82.0198 61.9844 81.9362C67.3548 79.8821 71.4675 76.2192 73.8664 70.965C75.8899 66.2832 75.8696 60.5425 74.0193 55.7943C73.1454 53.724 71.9647 51.9378 70.4526 50.2777C70.2591 50.0641 70.0655 49.8506 69.8661 49.6306C66.0772 45.65 60.8221 43.6862 55.4375 43.0316C55.1897 42.9975 54.942 42.9633 54.6867 42.9282C52.3111 42.7614 50.9159 43.6451 49.026 44.8986ZM14.9836 64.5482C14.8414 64.6296 14.6993 64.711 14.5529 64.7949C14.0881 65.0614 13.6243 65.3294 13.1604 65.5974C12.8427 65.78 12.5249 65.9626 12.2071 66.145C11.4153 66.5998 10.6243 67.0559 9.83362 67.5125C9.17895 67.8906 8.52393 68.268 7.86898 68.6456C6.79056 69.2678 5.71306 69.8917 4.63622 70.5166C4.78191 71.4743 5.05895 72.1586 5.55414 72.9889C5.76294 73.3423 5.76294 73.3423 5.97595 73.7029C6.20314 74.0814 6.20314 74.0814 6.43491 74.4676C6.75657 75.0106 7.07819 75.5536 7.39975 76.0966C7.56472 76.3738 7.72968 76.651 7.89965 76.9366C8.65398 78.2074 9.39764 79.4843 10.1418 80.761C10.4308 81.2556 10.7198 81.7501 11.0089 82.2446C11.623 83.2956 12.2361 84.3472 12.8486 85.3991C13.0055 85.6684 13.1625 85.9377 13.3242 86.2151C13.6229 86.7277 13.9214 87.2404 14.2196 87.7533C15.0062 89.1023 15.7942 90.4474 16.6483 91.755C16.7309 91.755 16.8135 91.755 16.8986 91.755C16.8986 82.5201 16.8986 73.2851 16.8986 63.7703C16.1312 63.7703 15.6447 64.1678 14.9836 64.5482Z" fill="#90A1B8"/>
</svg>
