<svg width="29" height="29" viewBox="0 0 29 29" fill="none" xmlns="http://www.w3.org/2000/svg">
<path fill-rule="evenodd" clip-rule="evenodd" d="M5.80003 13.05C5.80003 11.1272 6.56386 9.28311 7.9235 7.92347C9.28314 6.56383 11.1272 5.79999 13.05 5.79999C14.9728 5.79999 16.8169 6.56383 18.1766 7.92347C19.5362 9.28311 20.3 11.1272 20.3 13.05C20.3 14.9728 19.5362 16.8169 18.1766 18.1765C16.8169 19.5362 14.9728 20.3 13.05 20.3C11.1272 20.3 9.28314 19.5362 7.9235 18.1765C6.56386 16.8169 5.80003 14.9728 5.80003 13.05ZM13.05 2.89999C11.4417 2.89999 9.85647 3.28217 8.42487 4.01504C6.99326 4.7479 5.7563 5.81047 4.81592 7.11518C3.87554 8.41989 3.25865 9.92939 3.01611 11.5193C2.77357 13.1092 2.91231 14.734 3.42089 16.2597C3.92948 17.7855 4.79335 19.1685 5.94132 20.2949C7.08929 21.4213 8.48849 22.2588 10.0236 22.7383C11.5588 23.2178 13.1859 23.3257 14.7709 23.0531C16.3559 22.7804 17.8534 22.135 19.14 21.17C19.1812 21.2248 19.2263 21.2767 19.2749 21.3251L23.6249 25.6751C23.8983 25.9393 24.2646 26.0854 24.6448 26.0821C25.025 26.0788 25.3887 25.9263 25.6575 25.6575C25.9264 25.3886 26.0789 25.025 26.0822 24.6448C26.0855 24.2646 25.9393 23.8983 25.6752 23.6248L21.3252 19.2748C21.2767 19.2263 21.2249 19.1812 21.17 19.14C22.301 17.632 22.9897 15.8389 23.159 13.9615C23.3283 12.0842 22.9714 10.1967 22.1285 8.51078C21.2855 6.8248 19.9897 5.40688 18.3862 4.41589C16.7827 3.4249 14.935 2.89999 13.05 2.89999Z" fill="#212121"/>
</svg>
